<svg width="29" height="29" viewBox="0 0 29 29" fill="none" xmlns="http://www.w3.org/2000/svg">
<path fill-rule="evenodd" clip-rule="evenodd" d="M20.5813 0C25.4173 0 28.6667 3.39467 28.6667 8.44667V20.22C28.6667 25.272 25.4173 28.6667 20.5813 28.6667H8.08533C3.24933 28.6667 0 25.272 0 20.22V8.44667C0 3.39467 3.24933 0 8.08533 0H20.5813ZM20.5813 2H8.08533C4.38933 2 2 4.52933 2 8.44667V20.22C2 24.1373 4.38933 26.6667 8.08533 26.6667H20.5813C24.2787 26.6667 26.6667 24.1373 26.6667 20.22V8.44667C26.6667 4.52933 24.2787 2 20.5813 2ZM14.3333 8.4364C14.8853 8.4364 15.3333 8.8844 15.3333 9.4364V13.32L19.222 13.3203C19.774 13.3203 20.222 13.7683 20.222 14.3203C20.222 14.8723 19.774 15.3203 19.222 15.3203L15.3333 15.32V19.2057C15.3333 19.7577 14.8853 20.2057 14.3333 20.2057C13.7813 20.2057 13.3333 19.7577 13.3333 19.2057V15.32L9.44467 15.3203C8.89133 15.3203 8.44467 14.8723 8.44467 14.3203C8.44467 13.7683 8.89133 13.3203 9.44467 13.3203L13.3333 13.32V9.4364C13.3333 8.8844 13.7813 8.4364 14.3333 8.4364Z" fill="white"/>
</svg>
