<svg width="22" height="22" viewBox="0 0 22 22" fill="none" xmlns="http://www.w3.org/2000/svg">
<path d="M11.1088 0.621094C11.5065 0.621154 11.8879 0.779185 12.1692 1.06043C12.4504 1.34168 12.6085 1.72312 12.6085 2.12087L12.6085 9.62186L20.1095 9.62186C20.5028 9.62869 20.8776 9.78971 21.1533 10.0702C21.429 10.3507 21.5835 10.7283 21.5835 11.1216C21.5835 11.5149 21.429 11.8925 21.1533 12.173C20.8776 12.4536 20.5028 12.6146 20.1095 12.6214L12.6085 12.6214L12.6085 20.1224C12.6017 20.5156 12.4407 20.8905 12.1602 21.1662C11.8797 21.4418 11.5021 21.5963 11.1088 21.5963C10.7155 21.5963 10.3379 21.4418 10.0574 21.1662C9.77684 20.8905 9.61583 20.5156 9.60899 20.1224L9.60899 12.6214L2.108 12.6214C1.71475 12.6146 1.33992 12.4536 1.06423 12.173C0.788547 11.8925 0.634068 11.5149 0.634068 11.1216C0.634068 10.7283 0.788547 10.3507 1.06423 10.0702C1.33992 9.78971 1.71475 9.62869 2.108 9.62186L9.60899 9.62186L9.60899 2.12087C9.60905 1.72312 9.76708 1.34168 10.0483 1.06043C10.3296 0.779185 10.711 0.621154 11.1088 0.621094Z" fill="white"/>
</svg>
