<svg width="18" height="21" viewBox="0 0 18 21" fill="none" xmlns="http://www.w3.org/2000/svg">
<path fill-rule="evenodd" clip-rule="evenodd" d="M12.368 0C15.76 0 17.706 1.679 17.706 4.604V19.14C17.706 19.75 17.392 20.299 16.864 20.606C16.338 20.914 15.704 20.92 15.172 20.62L9.21199 17.253L3.19699 20.627C2.93699 20.773 2.65199 20.847 2.36599 20.847C2.07099 20.847 1.77599 20.768 1.50799 20.61C0.980992 20.303 0.666992 19.754 0.666992 19.145V4.421C0.666992 1.611 2.61399 0 6.00899 0H12.368ZM12.368 1.5H6.00899C3.45999 1.5 2.16699 2.482 2.16699 4.421V19.145C2.16699 19.239 2.22099 19.29 2.26599 19.316C2.31099 19.344 2.38199 19.364 2.46399 19.318L8.84599 15.738C9.07399 15.611 9.35299 15.61 9.58199 15.739L15.909 19.313C15.992 19.361 16.063 19.339 16.108 19.312C16.153 19.285 16.206 19.234 16.206 19.14L16.2056 4.49004C16.1981 3.62937 16.0315 1.5 12.368 1.5ZM12.8068 6.7285C13.2208 6.7285 13.5568 7.0645 13.5568 7.4785C13.5568 7.8925 13.2208 8.2285 12.8068 8.2285H5.48879C5.07479 8.2285 4.73879 7.8925 4.73879 7.4785C4.73879 7.0645 5.07479 6.7285 5.48879 6.7285H12.8068Z" fill="black"/>
</svg>
