<svg width="19" height="20" viewBox="0 0 19 20" fill="none" xmlns="http://www.w3.org/2000/svg">
<path fill-rule="evenodd" clip-rule="evenodd" d="M12.909 0C16.053 0 18.165 2.153 18.165 5.357V14.553C18.165 17.785 16.118 19.887 12.95 19.907L5.257 19.91C2.113 19.91 0 17.757 0 14.553V5.357C0 2.124 2.047 0.023 5.215 0.004L12.908 0H12.909ZM12.909 1.5L5.22 1.504C2.892 1.518 1.5 2.958 1.5 5.357V14.553C1.5 16.968 2.905 18.41 5.256 18.41L12.945 18.407C15.273 18.393 16.665 16.951 16.665 14.553V5.357C16.665 2.942 15.261 1.5 12.909 1.5ZM12.7161 13.4737C13.1301 13.4737 13.4661 13.8097 13.4661 14.2237C13.4661 14.6377 13.1301 14.9737 12.7161 14.9737H5.4961C5.0821 14.9737 4.7461 14.6377 4.7461 14.2237C4.7461 13.8097 5.0821 13.4737 5.4961 13.4737H12.7161ZM12.7161 9.2872C13.1301 9.2872 13.4661 9.6232 13.4661 10.0372C13.4661 10.4512 13.1301 10.7872 12.7161 10.7872H5.4961C5.0821 10.7872 4.7461 10.4512 4.7461 10.0372C4.7461 9.6232 5.0821 9.2872 5.4961 9.2872H12.7161ZM8.2508 5.1104C8.6648 5.1104 9.0008 5.4464 9.0008 5.8604C9.0008 6.2744 8.6648 6.6104 8.2508 6.6104H5.4958C5.0818 6.6104 4.7458 6.2744 4.7458 5.8604C4.7458 5.4464 5.0818 5.1104 5.4958 5.1104H8.2508Z" fill="white"/>
</svg>
