<svg width="100" height="100" viewBox="0 0 100 100" fill="none" xmlns="http://www.w3.org/2000/svg">
<rect width="100" height="100" rx="50" fill="#EFEFEF"/>
<path d="M5.95312 37.3125L6.42188 37.4688C7.75 37.3646 10.8099 37.3125 15.6016 37.3125L17.4766 37.8984C18.6745 38.0547 19.4818 38.3021 19.8984 38.6406C21.8255 40.3333 22.7891 41.7917 22.7891 43.0156C22.6589 43.6927 22.3854 44.7604 21.9688 46.2188C21.0573 47.1562 20.1979 47.9245 19.3906 48.5234C19.3906 48.7578 19.638 48.9661 20.1328 49.1484C20.3932 49.3307 20.8099 49.5391 21.3828 49.7734C21.6953 50.0859 22.2031 50.7109 22.9062 51.6484C23.8438 52.5859 24.3906 53.7188 24.5469 55.0469L24.5859 55.4766C24.5859 55.737 24.4948 55.8672 24.3125 55.8672V55.9062C24.3125 56.0625 24.4557 56.401 24.7422 56.9219V57.2734C24.7422 57.5078 24.5599 58.0286 24.1953 58.8359C24.1953 59.1745 23.9089 59.3958 23.3359 59.5C22.9974 59.5 22.6589 59.7344 22.3203 60.2031V60.2812C22.3203 60.3333 22.4245 60.3854 22.6328 60.4375V60.4766C22.5807 60.6068 22.4896 60.6719 22.3594 60.6719C22.3594 60.5156 22.3203 60.4375 22.2422 60.4375C22.1901 60.4375 22.138 60.5417 22.0859 60.75C21.6172 60.75 21.0573 60.9583 20.4062 61.375V61.4531H20.5234C20.6797 61.4531 21.0573 61.3229 21.6562 61.0625V61.1016C21.2656 61.4661 20.4714 61.7786 19.2734 62.0391C17.6068 62.7943 14.2474 63.1719 9.19531 63.1719V63.0938L9.15625 62.8984C7.95833 62.8984 6.86458 63.1328 5.875 63.6016C5.45833 63.6016 5.25 62.8854 5.25 61.4531C5.25 61.2448 6.03125 60.9193 7.59375 60.4766C8.73958 60.3464 9.3125 60.2292 9.3125 60.125V60.0859C9.15625 60.0859 8.97396 58.9922 8.76562 56.8047C8.71354 55.9453 8.63542 55.3594 8.53125 55.0469C8.53125 54.7604 8.63542 54.3828 8.84375 53.9141C8.79167 52.0391 8.64844 51.1016 8.41406 51.1016C8.25781 51.1016 8.1276 48.9792 8.02344 44.7344V40.75C7.45052 40.5156 7.07292 40.3984 6.89062 40.3984H6.61719C6.4349 40.3984 6.31771 40.4635 6.26562 40.5938V40.6719L6.30469 40.9844C6.30469 41.0365 6.1224 41.4661 5.75781 42.2734V42.3516L5.13281 42.3906C5.05469 42.2604 4.80729 42.1823 4.39062 42.1562C4.15625 42.1562 4 41.388 3.92188 39.8516C3.84375 39.4089 3.70052 38.901 3.49219 38.3281C3.88281 37.7812 4.3125 37.5078 4.78125 37.5078C4.78125 37.4557 5.17188 37.3906 5.95312 37.3125ZM9.58594 38.6016L9.66406 38.6406H10.7578C11.7474 38.6406 12.2422 38.5365 12.2422 38.3281V38.2891C12.2422 38.263 12.1641 38.224 12.0078 38.1719C10.4714 38.25 9.66406 38.3932 9.58594 38.6016ZM7.82812 38.4844L8.84375 38.7969H8.92188C9.07812 38.7969 9.20833 38.7188 9.3125 38.5625C9.3125 38.4323 9.01302 38.3411 8.41406 38.2891C8.02344 38.3151 7.82812 38.3802 7.82812 38.4844ZM13.2969 38.2891H13.1016V38.4062H13.2969V38.2891ZM19.625 39.2266L19.5078 39.3438V39.3828L19.6641 39.5781H19.8984L19.9766 39.4609V39.4219L19.8203 39.2266H19.625ZM10.2891 39.7734V39.8516L10.4062 40.0078H10.5625C11.8906 39.8776 12.6068 39.7214 12.7109 39.5391L12.6328 39.4609C11.0703 39.5391 10.2891 39.6432 10.2891 39.7734ZM10.5625 40.8281C10.7708 46.4271 10.9531 49.2266 11.1094 49.2266L11.2266 49.3047H11.2656L14.8203 48.4844C16.3828 48.276 17.1641 48.0677 17.1641 47.8594C19.0391 46.401 19.9766 45.3984 19.9766 44.8516V44.6172C19.6901 43.1328 19.5469 42.2995 19.5469 42.1172C19.5469 41.4401 19.0911 40.8021 18.1797 40.2031C17.8411 40.125 17.2031 40.0729 16.2656 40.0469C12.4635 40.2552 10.5625 40.5156 10.5625 40.8281ZM19.625 40.3984H19.2734V40.5156C19.7422 40.9323 19.9766 41.5182 19.9766 42.2734C20.1849 43.0286 20.3281 43.4714 20.4062 43.6016H20.4844V43.25C20.25 41.349 19.9635 40.3984 19.625 40.3984ZM21.7734 41.2578H21.6562V41.375L21.8516 41.5312H21.9688V41.4141L21.7734 41.2578ZM21.0703 42.1562L20.9531 42.2734L20.9922 42.4297H21.1094L21.3438 42.2344L21.2266 42.1562H21.0703ZM21.3438 43.1719L21.2266 43.0938L21.1875 43.1328V43.3281L21.2656 43.4062L21.3438 43.3672V43.1719ZM8.53125 44.1484L8.41406 44.2656V44.6172L8.53125 44.6953H8.57031L8.6875 44.6172V44.4609C8.6875 44.2786 8.63542 44.1745 8.53125 44.1484ZM19 47.7031L18.8438 47.8594H18.9609L19.0391 47.7812V47.7031H19ZM13.3359 49.4219H13.4531V49.4609C15.0677 49.3307 15.875 49.1875 15.875 49.0312V48.9922H15.6797C14.2474 49.0182 13.4661 49.1615 13.3359 49.4219ZM17.4766 49.3828V49.4609H17.5156C18.0625 49.4609 18.7656 49.5911 19.625 49.8516C19.7031 49.8516 19.7422 49.7995 19.7422 49.6953C19.5859 49.3307 19.2344 49.1484 18.6875 49.1484H18.2578C17.737 49.1484 17.4766 49.2266 17.4766 49.3828ZM20.25 49.9688V50.0078C20.5625 50.3724 20.849 50.5547 21.1094 50.5547V50.5156C21.1094 50.2552 20.8229 50.0729 20.25 49.9688ZM13.4922 50.8281C13.4922 50.8802 13.5443 50.9062 13.6484 50.9062C14.3516 50.8802 15.0938 50.776 15.875 50.5938L17.2422 50.5547H17.7109L17.9844 50.5156V50.4375C17.9844 50.3073 17.5938 50.2422 16.8125 50.2422H16.1094C14.7031 50.2422 13.8307 50.4375 13.4922 50.8281ZM13.1016 50.6719H12.9453V50.75H13.1016V50.6719ZM19.0391 50.6719H18.9609V50.8281H19.0391V50.6719ZM11.0312 51.2188V51.2969H11.1484C11.7995 51.2188 12.125 51.1146 12.125 50.9844H12.0078C11.7734 50.9844 11.4479 51.0625 11.0312 51.2188ZM10.9531 51.8047L10.8359 52L10.7969 52.8594C10.901 57.3125 11.0964 59.8385 11.3828 60.4375C11.513 60.8802 11.8255 61.1016 12.3203 61.1016L15.7969 61.2578C17.2031 61.1797 18.9219 60.5807 20.9531 59.4609C21.9427 58.4714 22.4375 57.7943 22.4375 57.4297C22.5417 57.4297 22.6068 57.2995 22.6328 57.0391V56.9219C22.6328 55.75 22.2812 54.5 21.5781 53.1719C20.849 52.3906 20.263 52 19.8203 52H19.5078C19.3516 51.9479 19.2734 51.9089 19.2734 51.8828C19.2734 51.7786 19.3646 51.7266 19.5469 51.7266V51.6484C19.3646 51.388 19.0781 51.2578 18.6875 51.2578H18.6484V51.2969L18.8438 51.5312V51.6094H18.7656C17.5677 51.2188 16.6042 51.0234 15.875 51.0234H15.6797C13.8828 51.0234 12.3073 51.2839 10.9531 51.8047ZM21.3438 51.3359L21.2266 51.4141C21.3307 51.8047 21.6562 52.2083 22.2031 52.625H22.3203V52.4688C22.2422 52.1042 21.9297 51.7266 21.3828 51.3359H21.3438ZM20.875 60.5156L20.9531 60.5938H20.9922C21.3307 60.5938 21.5911 60.3984 21.7734 60.0078V59.9688H21.7344C21.1615 60.151 20.875 60.3333 20.875 60.5156ZM9.78125 60.2031H9.54688V60.2422C9.57292 60.3464 9.66406 60.3984 9.82031 60.3984V60.2812L9.78125 60.2031ZM19.8203 60.9844V61.1406H19.9766C20.1589 61.1406 20.3281 61.0234 20.4844 60.7891V60.6719C20.0417 60.75 19.8203 60.8542 19.8203 60.9844ZM8.72656 61.6484H8.45312V61.8438H8.72656H8.92188H9.15625V61.6484H8.92188H8.72656ZM12.3984 62.0391L12.3203 62.1172H12.5156L12.3984 62.0391ZM6.96875 62.1953L6.85156 62.2344C6.90365 62.3646 7.00781 62.4297 7.16406 62.4297L7.32031 62.2344L7.24219 62.1953H6.96875ZM26.6172 35.2422L27.0469 35.125C29.1302 35.125 30.9271 35.3594 32.4375 35.8281H33.1016H33.6094L33.6875 36.0234L33.6484 38.2891C33.6224 38.4453 33.5312 38.5234 33.375 38.5234L32.9062 38.0547L31.8516 37.8203H31.5L31.2656 37.8984V38.0547C31.6302 38.2109 31.8646 38.2891 31.9688 38.2891V38.3672C31.9688 38.4714 31.6693 38.5495 31.0703 38.6016L30.8359 46.2188V47.0391L30.7969 57.5078V58.1328C30.7969 58.3672 31.526 58.4844 32.9844 58.4844H40.4844L41.7344 58.5625C41.8906 58.5625 42.0208 57.8464 42.125 56.4141C42.2031 56.0495 42.3203 55.8672 42.4766 55.8672C44.013 55.9193 44.7812 56.0625 44.7812 56.2969C44.6771 56.5312 44.5208 56.6484 44.3125 56.6484V56.7656C44.5729 57.026 44.7031 57.2474 44.7031 57.4297C44.7031 58.0286 44.612 58.8229 44.4297 59.8125V60.3984L44.4688 60.5938C44.3125 60.8802 44.2344 61.1406 44.2344 61.375C44.1823 61.375 44.0781 61.5443 43.9219 61.8828C43.349 62.0911 42.7891 62.1953 42.2422 62.1953H42.0859L38.7266 61.8828H38.5312L30.8359 62.1953L25.4844 61.6875C25.276 61.5312 25.1719 61.362 25.1719 61.1797C25.3802 59.6432 25.7057 58.875 26.1484 58.875C26.2786 58.7448 26.7865 58.6406 27.6719 58.5625C28.0104 57.7292 28.0234 53.9531 27.7109 47.2344C27.8672 45.4115 27.9974 42.7031 28.1016 39.1094V38.7188C28.1016 38.3281 27.8281 38.1328 27.2812 38.1328L26.9297 38.0547V37.9375C27.3984 37.7031 27.763 37.5859 28.0234 37.5859V37.4297L27.125 37.3125H26.5781V37.4688C26.6823 37.4688 26.7344 37.5078 26.7344 37.5859C26.6562 37.7161 26.5391 37.7812 26.3828 37.7812H26.2266C25.9661 37.6771 25.8359 37.3776 25.8359 36.8828V36.7656C25.8359 36.1667 26.0052 35.7891 26.3438 35.6328C26.4219 35.6328 26.513 35.5026 26.6172 35.2422ZM26.9297 36.4531L26.8125 36.5312V36.6094H27.0078L27.125 36.4922V36.4531H26.9297ZM32.125 36.4922L31.9688 36.6094V36.6875L32.2422 36.7656V36.8047L32.125 36.8828L31.3438 36.8438L31.3047 36.8828V37.0781L31.4219 37.1953H32.2031C32.6198 37.1953 32.8281 37.0521 32.8281 36.7656C32.6458 36.5833 32.4505 36.4922 32.2422 36.4922H32.125ZM29.2344 36.7656C29.3385 36.9479 29.625 37.0391 30.0938 37.0391H30.3672L30.5625 36.8438C30.3281 36.6875 30.0938 36.6094 29.8594 36.6094H29.5469C29.3385 36.6094 29.2344 36.6615 29.2344 36.7656ZM30.1328 37.4688L29.9375 37.5469V37.5859L30.0156 37.7422H30.2891L30.5234 37.6641V37.5469L30.2891 37.4688H30.1328ZM29.9766 38.2891L29.9375 38.3672V38.9141C29.9635 39.2526 30.0286 39.4219 30.1328 39.4219L30.3672 39.2656V38.9922C30.3411 38.5234 30.2109 38.2891 29.9766 38.2891ZM29.7031 46.0234H29.5859C29.3776 47.1172 29.3646 47.8333 29.5469 48.1719C29.6771 48.4062 29.7682 48.3281 29.8203 47.9375L29.8594 46.6484C29.8333 46.2318 29.7812 46.0234 29.7031 46.0234ZM44.0391 57.3516H43.9609C43.7526 57.8984 43.6484 58.2109 43.6484 58.2891L43.3359 59.9297V60.0859L43.4531 60.2031H43.5703C43.9089 60.0469 44.1042 59.3047 44.1562 57.9766C44.1302 57.5599 44.0911 57.3516 44.0391 57.3516ZM29.5469 57.5078H29.3516V57.625C29.2214 58.0156 29.1562 58.3021 29.1562 58.4844C29.1562 58.849 29.2474 59.0703 29.4297 59.1484H29.5859C29.6901 59.1484 29.7422 58.7708 29.7422 58.0156V57.8594C29.7422 57.6771 29.6771 57.5599 29.5469 57.5078ZM40.2891 58.8359H39.8984V58.9531C39.8984 59.0312 40.0677 59.0833 40.4062 59.1094C40.4062 59.3177 40.6406 59.4349 41.1094 59.4609L41.8516 59.3828V59.2266C41.3568 59.2266 40.8359 59.0964 40.2891 58.8359ZM39.1953 59.2266H38.1797V59.2656C38.2057 59.3438 38.3359 59.3828 38.5703 59.3828H39.4297V59.2656L39.1953 59.2266ZM25.9141 59.8125C26.1224 59.8125 26.2266 59.7214 26.2266 59.5391V59.4609H26.1484C25.9922 59.487 25.9141 59.6042 25.9141 59.8125ZM29.7812 59.7344H29.5859V59.9297C30.0547 60.0078 32.3984 60.151 36.6172 60.3594L36.6953 60.3203V60.2422L29.7812 59.7344ZM25.9922 60.0859L25.7578 60.125V60.2422L25.875 60.3594H25.9922L26.1094 60.2422V60.2031L25.9922 60.0859ZM38.8828 60.4375L38.8047 60.5156V60.5938L39.1562 60.6719H39.7031V60.5938C39.7031 60.4896 39.612 60.4375 39.4297 60.4375H38.8828ZM40.5625 60.9453V60.9844H40.6797C40.9401 60.9844 41.2005 60.8802 41.4609 60.6719C41.4349 60.5677 41.3307 60.5156 41.1484 60.5156C41.0443 60.5156 40.849 60.6589 40.5625 60.9453ZM41.6953 61.1016L41.1094 61.1406V61.1797C41.3177 61.388 41.5781 61.4922 41.8906 61.4922H42.0078C42.138 61.4922 42.2552 61.4401 42.3594 61.3359C42.4896 61.4401 42.6328 61.4922 42.7891 61.4922H43.1016C43.388 61.4922 43.5443 61.4401 43.5703 61.3359V61.2969C43.5703 61.1667 43.1667 61.1016 42.3594 61.1016H41.6953ZM31.0312 61.4531L30.1719 61.4922V61.5703C30.1719 61.7526 30.7839 61.8698 32.0078 61.9219C32.8151 61.9219 33.4792 61.8438 34 61.6875V61.5703C32.9062 61.4922 31.9297 61.4531 31.0703 61.4531H31.0312ZM29.3906 61.5703H29.3125V61.6875H29.3906V61.5703ZM35.4844 61.5703L35.25 61.6484V61.8047H35.4844L35.9531 61.6875V61.5703H35.4844ZM55.5625 35.0859L58.0234 34.8516C59.8984 35.1901 61.0443 35.4766 61.4609 35.7109C63.3359 36.8828 64.4557 37.9635 64.8203 38.9531L66.1875 41.0234C66.526 42.4818 66.8646 44.526 67.2031 47.1562C66.9948 50.4375 66.6823 52.2865 66.2656 52.7031C65.9792 53.7969 65.5625 54.9688 65.0156 56.2188C63.7656 58.7969 62.8932 60.3333 62.3984 60.8281C61.3568 61.7396 60.4323 62.1953 59.625 62.1953C59.2604 62.2734 59.0781 62.3906 59.0781 62.5469L57.3594 63.2109L57.125 63.1719C56.0052 63.3281 55.1328 63.4062 54.5078 63.4062H54C53.7396 63.4062 52.75 63.0807 51.0312 62.4297C50.5885 62.2734 50.0286 61.8177 49.3516 61.0625C48.8047 60.6719 48.5312 60.2943 48.5312 59.9297C47.8021 58.9141 47.099 57.2474 46.4219 54.9297C46.1354 54.1484 45.9922 53.6927 45.9922 53.5625L45.9531 52.9375C45.9531 48.6667 46.5781 45.5286 47.8281 43.5234C48.2448 42.9505 48.6094 41.9479 48.9219 40.5156L50.3281 38.7188C50.3281 38.0417 51.3568 37.0651 53.4141 35.7891C53.4141 35.6589 54.1302 35.4245 55.5625 35.0859ZM60.8359 35.8281H60.6797V36.0625C61.4609 36.5312 61.9297 36.7656 62.0859 36.7656V36.6875C61.513 36.1146 61.0964 35.8281 60.8359 35.8281ZM59.3516 36.1797L59.2344 36.2969V36.3359C60.1198 36.9609 61.1484 37.4297 62.3203 37.7422V37.6641C62.138 37.4297 61.7995 37.2214 61.3047 37.0391C61.3047 36.9089 60.9141 36.7135 60.1328 36.4531C59.9766 36.2708 59.7682 36.1797 59.5078 36.1797H59.3516ZM54.5469 37.2734V37.3516C54.651 37.3516 55.3021 37.1302 56.5 36.6875L56.9688 36.5312V36.3359C56.3177 36.3359 55.5104 36.6484 54.5469 37.2734ZM48.8828 49.6953V52.9766C48.8828 55.2422 49.4688 56.7005 50.6406 57.3516C51.8125 58.5234 52.5547 59.1094 52.8672 59.1094C53.6484 59.1094 54.2865 59.3568 54.7812 59.8516L55.1328 59.9297L55.5625 59.8516L55.9141 60.2031H55.9531C56.1094 60.2031 56.3047 60.0599 56.5391 59.7734C57.737 59.5911 58.5573 59.3177 59 58.9531C60.8229 57.1302 61.7344 56.1146 61.7344 55.9062C62.8281 53.3021 63.375 51.6615 63.375 50.9844C64 48.5885 64.4557 47.3906 64.7422 47.3906H64.8203V47.1562C64.8203 46.8438 64.651 46.349 64.3125 45.6719C64.1302 43.5885 63.8828 42.3125 63.5703 41.8438C63.0234 40.3594 61.6172 39.0443 59.3516 37.8984C58.5703 37.5339 58.1016 37.3516 57.9453 37.3516H57.6719C56.5 37.8724 55.862 38.1328 55.7578 38.1328C55.6797 38.1328 55.6406 38.237 55.6406 38.4453C54.1823 39.4349 53.3099 40.0859 53.0234 40.3984L51.1094 42.8594C50.6406 43.4583 50.237 44.2005 49.8984 45.0859C49.2214 46.6484 48.8828 48.1849 48.8828 49.6953ZM50.2891 40.7109V40.75H50.3672C52.2422 39.1094 53.1797 38.1979 53.1797 38.0156H53.1406C52.5677 38.0156 51.9427 38.5104 51.2656 39.5C51.1354 39.5 50.9271 39.6432 50.6406 39.9297C50.4062 39.9297 50.2891 40.1901 50.2891 40.7109ZM62.7891 38.1328L62.6328 38.2891H62.9453L62.7891 38.1328ZM53.5703 38.9141V38.9531H53.6875C54.4167 38.7708 54.7812 38.5495 54.7812 38.2891L54.7031 38.2109H54.5859C53.9089 38.3672 53.5703 38.6016 53.5703 38.9141ZM61.9297 38.6406C61.9297 38.9531 62.2943 39.2656 63.0234 39.5781H63.1797C63.2578 39.5781 63.2969 39.513 63.2969 39.3828C63.2969 39.1745 62.8411 38.9271 61.9297 38.6406ZM64.3516 39.7734L64.2344 39.9297V40.0859C64.2344 40.2943 64.625 41.1016 65.4062 42.5078L65.0156 40.8672C65.0156 40.138 64.8203 39.7734 64.4297 39.7734H64.3516ZM49.6641 40.9062L49.5859 41.0234V41.1016H49.7812V40.9062H49.6641ZM49.5078 41.375H49.3906V41.4922L49.5078 41.4141V41.375ZM50.3672 42.1953L50.0547 42.5078V42.6641H50.2109C50.3672 42.6641 50.4453 42.5208 50.4453 42.2344V42.1953H50.3672ZM65.7578 43.5625L65.5234 43.3672L65.4844 43.4453V43.4844L65.6016 43.9141H65.7578V43.5625ZM49.0781 44.6172V44.8516L49.2344 44.9688C49.2344 44.8385 49.4036 44.474 49.7422 43.875L49.7812 43.5625H49.6641C49.4036 43.7969 49.2083 44.1484 49.0781 44.6172ZM64.8203 48.25H64.625V48.4062H64.7031L64.8203 48.2891V48.25ZM65.6016 48.6406H65.5234C65.4193 49.0312 65.3672 49.474 65.3672 49.9688V50.0078H65.4062C65.5625 49.9818 65.6406 49.8516 65.6406 49.6172V48.875L65.6016 48.6406ZM66.2266 51.0625V51.2188H66.3828C66.5391 50.6719 66.6172 50.2552 66.6172 49.9688V49.8516H66.5C66.3438 49.8516 66.2526 50.2552 66.2266 51.0625ZM64.0391 51.0625V51.2969H64.2344L64.3516 50.9453L64.2734 50.5547H64.2344C64.1042 50.5547 64.0391 50.724 64.0391 51.0625ZM63.0625 54.9297H63.1406C63.3229 54.9297 63.4922 54.526 63.6484 53.7188C63.9089 53.276 64.0391 52.6901 64.0391 51.9609V51.8438L64 51.7266C63.7656 51.7266 63.4922 52.638 63.1797 54.4609L63.1406 54.5391L63.0625 54.9297ZM47.6719 52.9766L47.5547 53.0547V53.0938L47.6719 53.2109H47.7109L47.8281 53.0938V53.0547L47.7109 52.9766H47.6719ZM46.5391 53.5625L46.4219 53.7188V54.0312L46.5 54.1094H46.5781L46.6562 53.875V53.6797L46.5391 53.5625ZM62.2422 55.8672L62.3203 56.1797C61.5651 57.1693 61.1875 57.7161 61.1875 57.8203H61.4609L61.5 57.7422H61.5391L61.5781 57.8203V57.8594L59.7812 59.3438L59.7422 59.4609H59.7812L59.8203 59.5391H59.8984C60.4193 59.3568 61.0312 58.9141 61.7344 58.2109C62.3854 57.3776 62.763 56.6354 62.8672 55.9844V55.8672V55.5938C62.8672 55.4115 62.8021 55.2943 62.6719 55.2422H62.5938C62.4635 55.2422 62.3464 55.4505 62.2422 55.8672ZM47.9453 56.1406H47.9062V56.5312C47.9062 56.8438 48.0755 57.1172 48.4141 57.3516H48.5312V57.2734C48.5312 56.9089 48.3359 56.5312 47.9453 56.1406ZM61.3047 60.8281V60.9844H61.3438C62.3594 60.3073 62.8672 59.7995 62.8672 59.4609H62.7109C62.112 59.9297 61.6432 60.3854 61.3047 60.8281ZM56.8125 60.0078V60.0859H57.2422L57.3594 59.9297V59.8516H57.2422C56.9818 59.8516 56.8385 59.9036 56.8125 60.0078ZM53.0234 59.9688C53.0234 60.151 53.2057 60.3073 53.5703 60.4375V60.3984C53.5703 60.1901 53.388 60.0469 53.0234 59.9688ZM50.4453 60.5547H50.3672V60.7109L50.4844 60.7891H50.6016V60.7109L50.4453 60.5547ZM57.2812 61.6484V61.8047H57.5156C58.349 61.5964 58.7656 61.3229 58.7656 60.9844H58.7266C58.5182 60.9844 58.0365 61.2057 57.2812 61.6484ZM55.7578 61.1016L55.1719 61.1797V61.375H55.7578H56.6172V61.2969C56.6172 61.1927 56.4479 61.1276 56.1094 61.1016H55.7578ZM54.3125 61.1406L54.1953 61.2188L54.5859 61.375V61.2969C54.5599 61.1927 54.4688 61.1406 54.3125 61.1406ZM59.8203 61.5312L59.7422 61.6484V61.8047H59.8984L60.0547 61.6484L59.8984 61.5312H59.8203ZM50.7188 61.8828V61.9609C50.7188 62.0911 51.1615 62.2865 52.0469 62.5469C53.1406 62.8854 53.8828 63.0547 54.2734 63.0547C54.8984 63.0547 55.849 62.9115 57.125 62.625V62.5469H56.3828L53.7266 62.6641L52.0469 62.0781C51.526 61.9479 51.0833 61.8828 50.7188 61.8828ZM85.25 37.0781C85.849 37.0781 86.1484 37.3385 86.1484 37.8594C86.0182 41.349 85.862 43.0938 85.6797 43.0938C85.6797 43.4583 85.2109 43.6927 84.2734 43.7969H84.1172C83.4661 43.7969 83.1406 43.5495 83.1406 43.0547L83.2578 42.5859C83.2578 42.4297 82.6589 41.8438 81.4609 40.8281C80.5234 40.2031 79.2474 39.8906 77.6328 39.8906C76.2266 39.8906 74.8073 40.724 73.375 42.3906C70.9792 44.7344 69.7812 46.8828 69.7812 48.8359V48.875L70.2109 50.9453C70.2109 51.6484 70.6797 53.1198 71.6172 55.3594C71.6172 55.5156 72.0339 56.0885 72.8672 57.0781C72.9453 57.5469 73.2188 57.9896 73.6875 58.4062C74.4427 59.0833 76.4609 59.4219 79.7422 59.4219C80.7578 59.4219 81.9167 58.8359 83.2188 57.6641C83.6094 57.4297 83.8047 56.1276 83.8047 53.7578V53.2891C83.8047 53.0286 83.5312 52.8984 82.9844 52.8984C81.2396 52.7943 80.3672 52.599 80.3672 52.3125L80.3281 52C80.4844 50.9583 80.7839 50.4375 81.2266 50.4375L84.2734 50.4766L87.9844 50.125C88.2969 50.2031 88.4531 50.3203 88.4531 50.4766L88.3359 51.7656V52.0781C88.1536 52.7812 87.8281 53.1328 87.3594 53.1328L86.2266 53.0547V53.2109C86.4089 53.2109 86.5 54.7865 86.5 57.9375C86.5 61.4792 86.6172 63.3672 86.8516 63.6016H86.7734L86.6172 63.6406H84.8984C84.7422 63.6406 84.5078 63.7057 84.1953 63.8359C83.7526 63.8359 83.5312 63.4323 83.5312 62.625C83.5312 62.0521 83.401 61.7656 83.1406 61.7656C83.0104 61.7656 82.5286 62.0911 81.6953 62.7422C80.888 63.0547 80.2109 63.2109 79.6641 63.2109H79.3906C77.724 63.2109 75.9531 62.7812 74.0781 61.9219C73.6354 61.4792 73.0625 61.1016 72.3594 60.7891C71.6042 60.1901 70.9922 59.526 70.5234 58.7969C69.5599 57.3646 69.0781 56.4922 69.0781 56.1797C68.5573 55.2943 68.1406 54.0182 67.8281 52.3516L67.9062 48.7188H67.9453L68.2969 49.0703C68.349 49.0703 68.401 48.9141 68.4531 48.6016C68.401 48.2891 68.3229 48.1328 68.2188 48.1328C68.1406 48.1328 68.0104 48.1849 67.8281 48.2891H67.7891C67.8151 47.1432 68.0755 45.9714 68.5703 44.7734C69.2995 43.862 70.1719 42.599 71.1875 40.9844C71.3698 40.8542 71.513 40.6198 71.6172 40.2812C71.9557 39.8906 73.1016 39.1745 75.0547 38.1328C75.4714 37.9505 76.3177 37.7682 77.5938 37.5859H77.6328C78.5964 37.5859 80.4323 37.9635 83.1406 38.7188H83.2188C83.349 38.5885 83.4141 38.4323 83.4141 38.25V38.0547L83.3359 37.7812C83.5703 37.3125 84.2083 37.0781 85.25 37.0781ZM71.3828 43.9141H71.5C72.4896 42.7161 72.9844 42.0521 72.9844 41.9219H72.8672C71.9557 42.7552 71.4609 43.4193 71.3828 43.9141ZM70.9141 42.3906H70.9922C71.1484 42.2865 71.2526 42.1953 71.3047 42.1172V42H71.2656C71.0312 42.1042 70.9141 42.2344 70.9141 42.3906ZM69.8984 44.4219L69.7812 44.5781V44.6562H69.8594L70.0156 44.5391V44.4219H69.8984ZM87.75 50.7109L87.6328 50.8281V50.9453L87.75 51.0234L87.8672 50.8672V50.8281L87.7891 50.7109H87.75ZM83.5703 58.4453L83.4531 58.5625L83.5312 58.6797H83.6484L83.8047 58.5625L83.6875 58.4453H83.5703ZM80.3672 59.9297C80.3672 60.0078 80.4062 60.0469 80.4844 60.0469C80.6406 60.0469 80.8229 59.9297 81.0312 59.6953V59.6562H80.9531C80.6667 59.6562 80.4714 59.7474 80.3672 59.9297ZM74.1172 59.8125H73.9609V59.8906C73.9609 60.0469 74.2865 60.1771 74.9375 60.2812H75.4062L75.4844 60.1641C74.8594 59.9297 74.4036 59.8125 74.1172 59.8125ZM84.1172 61.7656L83.9609 61.8828V62L84.0391 62.0781C84.1953 62.026 84.2734 61.974 84.2734 61.9219V61.8438L84.1172 61.7656ZM80.8359 62.5078V62.625H80.875C81.1615 62.625 81.474 62.4948 81.8125 62.2344L81.7734 62.0781H81.5781C81.2917 62.0781 81.0443 62.2214 80.8359 62.5078Z" fill="#181717"/>
<path d="M92.7891 56.5703C93.5964 56.6745 94.1562 56.8698 94.4688 57.1562C94.5729 57.3646 94.625 57.599 94.625 57.8594V58.4062C94.625 59.474 94.013 60.5026 92.7891 61.4922L92.2812 61.6484C91.7865 61.6484 91.2786 60.9062 90.7578 59.4219V59.2656C90.7578 58.1198 90.9271 57.4167 91.2656 57.1562C92.0208 56.7656 92.5286 56.5703 92.7891 56.5703ZM91.5391 58.2891C91.5911 58.9661 91.6823 59.3047 91.8125 59.3047C91.8646 59.2526 91.9818 58.7969 92.1641 57.9375L92.2812 57.6641V57.5469H92.2422C91.7734 57.7031 91.5391 57.9505 91.5391 58.2891ZM92.5938 58.5234V58.6016C92.5938 58.862 92.6458 59.0052 92.75 59.0312H92.7891C92.8932 59.0312 93.0495 58.7578 93.2578 58.2109V57.9766L93.1406 57.9375H93.0234C92.737 57.9375 92.5938 58.1328 92.5938 58.5234ZM93.7266 59.0312L93.7656 59.1094H93.9609L94 58.8359V58.7188H93.9609C93.8828 58.7188 93.8047 58.8229 93.7266 59.0312ZM93.1797 59.8125L91.7344 59.9688C91.7344 60.1771 91.8125 60.2943 91.9688 60.3203H92.3984C92.7109 60.3203 92.9714 60.1771 93.1797 59.8906V59.8125Z" fill="#141313"/>
</svg>
